<svg xmlns="http://www.w3.org/2000/svg" viewBox="0 0 1098 1103" role="img" aria-label="AFRO Agency AI">
  <title>AFRO Agency AI</title>
  <defs>
    <path id="afro" d="M0 0 C2.13684302 1.65156248 4.25849016 3.3144177 6.37109375 4.99609375 C10.31386311 8.12238595 14.39572906 11.04290309 18.48828125 13.96875 C25.00523469 18.64283996 31.45639413 23.39490206 37.86328125 28.21875 C46.72126425 34.88790761 55.63150278 41.4823967 64.56689453 48.04736328 C68.52257746 50.95496628 72.47395114 53.86841394 76.42578125 56.78125 C78.00909413 57.94794442 79.59242746 59.1146111 81.17578125 60.28125 C95.42578125 70.78125 95.42578125 70.78125 109.67578125 81.28125 C110.45977295 81.85891113 111.24376465 82.43657227 112.05151367 83.03173828 C113.63247108 84.19668849 115.21336317 85.36172734 116.79418945 86.52685547 C121.59582543 90.065632 126.399998 93.60093106 131.20581055 97.1340332 C133.58356539 98.8843752 135.95805011 100.63907566 138.33203125 102.39453125 C141.34020549 104.61826816 144.36150748 106.82202027 147.39453125 109.01171875 C158.13024861 116.81206979 168.0877468 124.05225833 170.92578125 137.78125 C171.88571385 146.64062797 171.02316625 153.84256656 166.92578125 161.78125 C167.56902344 161.4925 168.21226562 161.20375 168.875 160.90625 C178.15809376 157.0923684 186.92343209 156.25302748 196.61328125 159.21875 C209.06969994 164.48531663 215.86016173 175.81855056 223.30419922 186.48535156 C225.75210678 189.95119358 228.3020652 193.33623734 230.86328125 196.71875 C237.02123487 204.8845549 243.08550444 213.1178369 249.14355469 221.35791016 C252.06808871 225.33447518 254.99713558 229.30771271 257.92578125 233.28125 C259.09247013 234.86456696 260.25913678 236.44790031 261.42578125 238.03125 C262.29203125 239.206875 262.29203125 239.206875 263.17578125 240.40625 C268.42578125 247.53125 268.42578125 247.53125 270.17553711 249.90600586 C271.34290656 251.49023481 272.51038713 253.07438188 273.67797852 254.65844727 C276.58480682 258.6024157 279.48972605 262.54776162 282.390625 266.49609375 C288.36321649 274.62097046 294.36690103 282.72046821 300.42578125 290.78125 C307.65421757 300.40296064 314.83834095 310.05508847 321.92578125 319.78125 C322.48491211 320.54663086 323.04404297 321.31201172 323.62011719 322.10058594 C337.19113845 340.74192454 345.34995676 357.38029781 341.71484375 381.10546875 C338.91255087 394.15971429 331.33521579 405.20338875 323.42578125 415.71875 C322.18865327 417.38009753 320.95167853 419.04155917 319.71484375 420.703125 C319.08739258 421.54294922 318.45994141 422.38277344 317.81347656 423.24804688 C315.37973801 426.51401573 312.96777493 429.79569638 310.55664062 433.07836914 C305.23221899 440.32689698 299.86636223 447.5424563 294.45996094 454.72998047 C288.82269039 462.2333178 283.26706846 469.79655541 277.70800781 477.35791016 C274.20259642 482.12430926 270.6910709 486.88620536 267.18066406 491.64892578 C264.23688212 495.64335321 261.29464139 499.63889819 258.35546875 503.63671875 C252.42925293 511.6942929 246.47839191 519.73113009 240.46435547 527.72338867 C236.58511629 532.88522777 232.75131531 538.07952682 228.92578125 543.28125 C227.74615258 544.88025174 226.56646551 546.47921039 225.38671875 548.078125 C223.12796803 551.14113744 220.88492587 554.21475014 218.65234375 557.296875 C210.95414387 567.86110763 204.36070466 576.81327346 190.92578125 579.78125 C182.10478115 580.82343881 174.98438423 579.39873911 166.92578125 575.78125 C167.21453125 576.41289063 167.50328125 577.04453125 167.80078125 577.6953125 C171.6208496 586.90061609 172.75670797 596.43683607 169.48828125 606.03125 C163.65168845 618.26030158 152.14993556 625.35865062 141.46191406 632.96679688 C137.41710818 635.86061641 133.42353533 638.82296175 129.42578125 641.78125 C127.84271 642.94827227 126.25937614 644.11493838 124.67578125 645.28125 C123.89203125 645.85875 123.10828125 646.43625 122.30078125 647.03125 C96.17578125 666.28125 96.17578125 666.28125 93.80004883 668.03173828 C92.21909142 669.19668849 90.63819933 670.36172734 89.05737305 671.52685547 C85.06322297 674.4705198 81.06789695 677.41256346 77.0703125 680.3515625 C69.66558662 685.79761895 62.27153759 691.25582766 54.92578125 696.78125 C46.77751463 702.91031449 38.56851961 708.95544626 30.35351562 714.99462891 C27.14625772 717.35491786 23.94394857 719.72187589 20.74145508 722.08862305 C17.59460637 724.41104326 14.44135766 726.7247087 11.28857422 729.0390625 C8.89029283 730.80741712 6.50347156 732.59049983 4.1171875 734.375 C-14.07721023 747.88805068 -29.29783344 752.66003229 -52.07421875 750.78125 C-61.85624505 749.20273231 -70.16172346 744.52675537 -78.07421875 738.78125 C-78.73873047 738.30010742 -79.40324219 737.81896484 -80.08789062 737.32324219 C-84.94196995 733.79901837 -89.76041381 730.22823525 -94.5703125 726.64404297 C-98.56090157 723.67522525 -102.56807248 720.72902022 -106.57421875 717.78125 C-108.15763806 716.61470003 -109.74097126 715.44803315 -111.32421875 714.28125 C-112.10796875 713.70375 -112.89171875 713.12625 -113.69921875 712.53125 C-116.07421875 710.78125 -118.44921875 709.03125 -120.82421875 707.28125 C-122.0002063 706.4147583 -122.0002063 706.4147583 -123.19995117 705.53076172 C-124.78090858 704.36581151 -126.36180067 703.20077266 -127.94262695 702.03564453 C-131.93677703 699.0919802 -135.93210305 696.14993654 -139.9296875 693.2109375 C-147.98939483 687.28315275 -156.02746778 681.32957033 -164.02294922 675.31542969 C-171.52628655 669.67815914 -179.08952416 664.12253721 -186.65087891 658.56347656 C-190.62744388 655.63894258 -194.60071268 652.70993794 -198.57421875 649.78125 C-204.23342086 645.61035596 -209.8942092 641.44163662 -215.55737305 637.27612305 C-217.95579409 635.50993276 -220.35109541 633.73957747 -222.74609375 631.96875 C-225.36761685 630.03179931 -227.9994071 628.11240832 -230.65234375 626.21875 C-239.88789607 619.53573726 -248.54262423 612.39493986 -251.07421875 600.78125 C-252.02217605 591.63741188 -251.38698956 583.96396248 -247.07421875 575.78125 C-247.71746094 576.07 -248.36070312 576.35875 -249.0234375 576.65625 C-258.30653126 580.4701316 -267.07186959 581.30947252 -276.76171875 578.34375 C-289.1248262 573.11663531 -295.91079352 561.84547711 -303.31054688 551.26660156 C-306.29371436 547.06274706 -309.40446735 542.95626502 -312.51171875 538.84375 C-319.18251382 529.98701567 -325.77538128 521.07550693 -332.34033203 512.14013672 C-335.24793503 508.18445379 -338.16138269 504.23308011 -341.07421875 500.28125 C-342.24091317 498.69793712 -343.40757985 497.11460379 -344.57421875 495.53125 C-345.15171875 494.7475 -345.72921875 493.96375 -346.32421875 493.15625 C-351.57421875 486.03125 -351.57421875 486.03125 -353.32470703 483.65551758 C-354.48965724 482.07456017 -355.65469609 480.49366808 -356.81982422 478.9128418 C-359.76348855 474.91869172 -362.70553221 470.9233657 -365.64453125 466.92578125 C-371.0905906 459.52105143 -376.54908629 452.12722751 -382.07421875 444.78125 C-388.80412246 435.82753247 -395.47426034 426.83123538 -402.07421875 417.78125 C-402.91944092 416.62447754 -402.91944092 416.62447754 -403.78173828 415.44433594 C-416.55610298 397.89684461 -425.58896052 381.29229308 -422.44921875 358.65625 C-419.926583 346.33985194 -414.49412336 336.72949484 -407.07421875 326.78125 C-406.00532283 325.32378689 -404.93768653 323.86539942 -403.87109375 322.40625 C-400.89603148 318.34491944 -397.90279087 314.29734173 -394.90478516 310.25292969 C-391.95352965 306.26806563 -389.0143952 302.2742912 -386.07421875 298.28125 C-384.91019498 296.70179437 -383.74613241 295.12236734 -382.58203125 293.54296875 C-380.22078678 290.33861102 -377.86163329 287.13272783 -375.50390625 283.92578125 C-369.5761215 275.86607392 -363.62253908 267.82800097 -357.60839844 259.83251953 C-351.97112789 252.3291822 -346.41550596 244.76594459 -340.85644531 237.20458984 C-337.93191129 233.22802482 -335.00286442 229.25478729 -332.07421875 225.28125 C-330.90752987 223.69793304 -329.74086322 222.11459969 -328.57421875 220.53125 C-325.07421875 215.78125 -325.07421875 215.78125 -321.57421875 211.03125 C-320.99623535 210.2467749 -320.41825195 209.4622998 -319.82275391 208.65405273 C-318.66123676 207.07784705 -317.4994548 205.50183647 -316.33740234 203.92602539 C-313.33969714 199.86023521 -310.34729134 195.79069828 -307.36328125 191.71484375 C-284.81653972 160.94162872 -284.81653972 160.94162872 -271.07421875 157.78125 C-262.25725769 156.73007946 -255.12829236 158.16579411 -247.07421875 161.78125 C-247.50734375 160.95947266 -247.50734375 160.95947266 -247.94921875 160.12109375 C-252.16508871 151.11845477 -252.87872532 140.95572774 -249.63671875 131.46875 C-243.75688054 119.28908514 -232.28289352 112.19283044 -221.61035156 104.59570312 C-217.56554568 101.70188359 -213.57197283 98.73953825 -209.57421875 95.78125 C-207.9911475 94.61422773 -206.40781364 93.44756162 -204.82421875 92.28125 C-204.04046875 91.70375 -203.25671875 91.12625 -202.44921875 90.53125 C-195.32421875 85.28125 -195.32421875 85.28125 -192.94848633 83.53076172 C-191.36752892 82.36581151 -189.78663683 81.20077266 -188.20581055 80.03564453 C-184.21166047 77.0919802 -180.21633445 74.14993654 -176.21875 71.2109375 C-168.81402412 65.76488105 -161.41997509 60.30667234 -154.07421875 54.78125 C-145.92432925 48.65096479 -137.71399265 42.60414741 -129.49755859 36.56347656 C-126.31088055 34.21985882 -123.12637423 31.87330196 -119.94213867 29.52636719 C-118.36310347 28.36264478 -116.78383896 27.19923344 -115.2043457 26.03613281 C-111.21695208 23.09965151 -107.23263163 20.1591553 -103.25390625 17.2109375 C-98.53843444 13.71914616 -93.81205636 10.24263378 -89.07421875 6.78125 C-88.3073877 6.22066895 -87.54055664 5.66008789 -86.75048828 5.08251953 C-69.99160233 -7.11709458 -69.99160233 -7.11709458 -62.07421875 -10.21875 C-61.32398438 -10.53328125 -60.57375 -10.8478125 -59.80078125 -11.171875 C-39.40482628 -18.24933571 -16.93261552 -12.22074411 0 0 Z M-234.07421875 174.78125 C-232.72705057 177.64378357 -231.19648819 180.12411804 -229.30859375 182.66015625 C-228.75558594 183.40652344 -228.20257813 184.15289062 -227.6328125 184.921875 C-227.03597656 185.72109375 -226.43914062 186.5203125 -225.82421875 187.34375 C-224.54809581 189.06374179 -223.27205644 190.78379558 -221.99609375 192.50390625 C-221.34318359 193.38191895 -220.69027344 194.25993164 -220.01757812 195.16455078 C-217.02451217 199.19466145 -214.04973367 203.23817428 -211.07421875 207.28125 C-209.90765218 208.86465708 -208.74098519 210.44799019 -207.57421875 212.03125 C-186.57421875 240.53125 -186.57421875 240.53125 -184.82373047 242.90698242 C-183.65878026 244.48793983 -182.49374141 246.06883192 -181.32861328 247.6496582 C-178.38494895 251.64380828 -175.44290529 255.6391343 -172.50390625 259.63671875 C-167.0578498 267.04144463 -161.59964109 274.43549366 -156.07421875 281.78125 C-150.55425066 289.11975521 -145.10024863 296.50552009 -139.6640625 303.90625 C-137.25284306 307.1871436 -134.82740833 310.45680228 -132.390625 313.71875 C-117.91295288 333.13128872 -104.27403296 351.63432606 -107.50390625 377.1796875 C-110.3037255 393.94403732 -119.11103849 406.07759978 -129.21142578 419.32568359 C-132.20992183 423.27835375 -135.13923786 427.28133163 -138.07421875 431.28125 C-139.24053538 432.8648412 -140.40720257 434.44817426 -141.57421875 436.03125 C-142.44046875 437.206875 -142.44046875 437.206875 -143.32421875 438.40625 C-145.07421875 440.78125 -146.82421875 443.15625 -148.57421875 445.53125 C-149.15187988 446.3152417 -149.72954102 447.0992334 -150.32470703 447.90698242 C-151.48965724 449.48793983 -152.65469609 451.06883192 -153.81982422 452.6496582 C-156.76348855 456.64380828 -159.70553221 460.6391343 -162.64453125 464.63671875 C-168.572316 472.69642608 -174.52589842 480.73449903 -180.54003906 488.72998047 C-186.17730961 496.2333178 -191.73293154 503.79655541 -197.29199219 511.35791016 C-200.79367097 516.11923394 -204.30122164 520.87623421 -207.80834961 525.63354492 C-210.81597964 529.71397094 -213.82057767 533.79657792 -216.8203125 537.8828125 C-217.7474707 539.14448242 -217.7474707 539.14448242 -218.69335938 540.43164062 C-219.86103999 542.02073981 -221.02778765 543.61052521 -222.19335938 545.20117188 C-225.62024216 549.86222614 -229.14121877 554.42591669 -232.77368164 558.92919922 C-234.26577811 560.67686474 -234.26577811 560.67686474 -234.07421875 562.78125 C-231.21168518 561.43408182 -228.73135071 559.90351944 -226.1953125 558.015625 C-225.44894531 557.46261719 -224.70257813 556.90960937 -223.93359375 556.33984375 C-223.134375 555.74300781 -222.33515625 555.14617187 -221.51171875 554.53125 C-219.79172696 553.25512706 -218.07167317 551.97908769 -216.3515625 550.703125 C-215.4735498 550.05021484 -214.59553711 549.39730469 -213.69091797 548.72460938 C-209.6608073 545.73154342 -205.61729447 542.75676492 -201.57421875 539.78125 C-199.99081167 538.61468343 -198.40747856 537.44801644 -196.82421875 536.28125 C-168.32421875 515.28125 -139.82421875 494.28125 -111.32421875 473.28125 C-110.14762695 472.41415405 -110.14762695 472.41415405 -108.94726562 471.52954102 C-107.37078654 470.36810411 -105.79396592 469.20713066 -104.21679688 468.04663086 C-100.1506063 465.05374307 -96.09145164 462.05196431 -92.04296875 459.03515625 C-72.88996517 444.78023655 -55.36053724 432.84455684 -30.37548828 436.49829102 C-14.16135755 439.22894978 -2.3270702 448.16229631 10.45703125 457.90966797 C14.47463184 460.95544785 18.54671952 463.92636692 22.61328125 466.90625 C29.06102945 471.65062119 35.47716944 476.43503786 41.87451172 481.24707031 C49.37784905 486.88434086 56.94108666 492.43996279 64.50244141 497.99902344 C68.47900643 500.92355746 72.45224396 503.85260433 76.42578125 506.78125 C78.00909821 507.94793888 79.59243156 509.11460553 81.17578125 510.28125 C90.67578125 517.28125 100.17578125 524.28125 109.67578125 531.28125 C110.46033691 531.85931396 111.24489258 532.43737793 112.05322266 533.03295898 C113.62853264 534.19377343 115.2037289 535.35474223 116.77880859 536.51586914 C120.85895613 539.52338315 124.9413454 542.52778234 129.02734375 545.52734375 C130.28901367 546.45450195 130.28901367 546.45450195 131.57617188 547.40039062 C133.16527106 548.56807124 134.75505646 549.7348189 136.34570312 550.90039062 C141.00675739 554.32727341 145.57044794 557.84825002 150.07373047 561.48071289 C151.82139599 562.97280936 151.82139599 562.97280936 153.92578125 562.78125 C152.57861307 559.91871643 151.04805069 557.43838196 149.16015625 554.90234375 C148.60714844 554.15597656 148.05414062 553.40960937 147.484375 552.640625 C146.88753906 551.84140625 146.29070312 551.0421875 145.67578125 550.21875 C144.39965831 548.49875821 143.12361894 546.77870442 141.84765625 545.05859375 C141.19474609 544.18058105 140.54183594 543.30256836 139.86914062 542.39794922 C136.87607467 538.36783855 133.90129617 534.32432572 130.92578125 530.28125 C129.75921468 528.69784292 128.59254769 527.11450981 127.42578125 525.53125 C120.42578125 516.03125 120.42578125 516.03125 118.67529297 513.65551758 C117.51034276 512.07456017 116.34530391 510.49366808 115.18017578 508.9128418 C112.23651145 504.91869172 109.29446779 500.9233657 106.35546875 496.92578125 C100.9094123 489.52105537 95.45120359 482.12700634 89.92578125 474.78125 C83.79549604 466.6313605 77.74867866 458.4210239 71.70800781 450.20458984 C69.36418774 447.01763669 67.01747101 443.83282444 64.67016602 440.6484375 C63.50855193 439.07208897 62.34758023 437.49526686 61.18725586 435.91796875 C58.22118502 431.88727178 55.24490911 427.86479534 52.25 423.85546875 C37.49385079 404.06514647 23.98190781 385.47583799 27.35546875 359.46875 C30.31709553 343.08839446 39.21491113 331.15395986 49.06298828 318.23681641 C52.06148433 314.28414625 54.99080036 310.28116837 57.92578125 306.28125 C59.09209788 304.6976588 60.25876507 303.11432574 61.42578125 301.53125 C62.00328125 300.7475 62.58078125 299.96375 63.17578125 299.15625 C69.59244792 290.44791667 76.00911458 281.73958333 82.42578125 273.03125 C83.00344238 272.2472583 83.58110352 271.4632666 84.17626953 270.65551758 C85.34121974 269.07456017 86.50625859 267.49366808 87.67138672 265.9128418 C90.61505105 261.91869172 93.55709471 257.9233657 96.49609375 253.92578125 C102.4238785 245.86607392 108.37746092 237.82800097 114.39160156 229.83251953 C121.90108365 219.83722539 129.28126472 209.74556098 136.6796875 199.66796875 C137.29666504 198.82854736 137.91364258 197.98912598 138.54931641 197.12426758 C139.71544885 195.53766827 140.88057261 193.95032684 142.04443359 192.36206055 C145.4714229 187.70071761 148.9925963 183.13681263 152.62524414 178.63330078 C154.11734061 176.88563526 154.11734061 176.88563526 153.92578125 174.78125 C151.06324768 176.12841818 148.58291321 177.65898056 146.046875 179.546875 C145.30050781 180.09988281 144.55414062 180.65289062 143.78515625 181.22265625 C142.9859375 181.81949219 142.18671875 182.41632813 141.36328125 183.03125 C139.64328946 184.30737294 137.92323567 185.58341231 136.203125 186.859375 C135.3251123 187.51228516 134.44709961 188.16519531 133.54248047 188.83789062 C129.5123698 191.83095658 125.46885697 194.80573508 121.42578125 197.78125 C119.84237417 198.94781657 118.25904106 200.11448356 116.67578125 201.28125 C88.17578125 222.28125 59.67578125 243.28125 31.17578125 264.28125 C30.39138672 264.85931396 29.60699219 265.43737793 28.79882812 266.03295898 C27.22234904 267.19439589 25.64552842 268.35536934 24.06835938 269.51586914 C20.0021688 272.50875693 15.94301414 275.51053569 11.89453125 278.52734375 C-7.568941 293.01099319 -24.71256947 304.33715865 -50.03515625 301.11767578 C-60.50101174 299.39090987 -69.53088334 294.98482772 -78.07421875 288.78125 C-78.73873047 288.30010742 -79.40324219 287.81896484 -80.08789062 287.32324219 C-84.94196995 283.79901837 -89.76041381 280.22823525 -94.5703125 276.64404297 C-98.56090157 273.67522525 -102.56807248 270.72902022 -106.57421875 267.78125 C-108.15763806 266.61470003 -109.74097126 265.44803315 -111.32421875 264.28125 C-112.49984375 263.415 -112.49984375 263.415 -113.69921875 262.53125 C-117.26171875 259.90625 -117.26171875 259.90625 -120.82421875 257.28125 C-121.60821045 256.70358887 -122.39220215 256.12592773 -123.19995117 255.53076172 C-124.78090858 254.36581151 -126.36180067 253.20077266 -127.94262695 252.03564453 C-131.93677703 249.0919802 -135.93210305 246.14993654 -139.9296875 243.2109375 C-147.98939483 237.28315275 -156.02746778 231.32957033 -164.02294922 225.31542969 C-171.52628655 219.67815914 -179.08952416 214.12253721 -186.65087891 208.56347656 C-191.40925269 205.06396733 -196.16325248 201.55851818 -200.91772461 198.05371094 C-205.04833257 195.00924748 -209.18089685 191.96749052 -213.31640625 188.9296875 C-214.17556641 188.29804688 -215.03472656 187.66640625 -215.91992188 187.015625 C-217.56122443 185.80904583 -219.20311686 184.6032685 -220.84570312 183.3984375 C-223.95047928 181.11495946 -227.01147381 178.83289262 -229.98828125 176.3828125 C-231.90030152 174.57825244 -231.90030152 174.57825244 -234.07421875 174.78125 Z " transform="translate(580.07421875,171.21875)"/>
  </defs>
  <g fill="#CC6600">
    <use href="#afro" x="0.000" y="0.000"/>
    <use href="#afro" x="0.600" y="0.767"/>
    <use href="#afro" x="1.200" y="1.533"/>
    <use href="#afro" x="1.800" y="2.300"/>
    <use href="#afro" x="2.400" y="3.067"/>
    <use href="#afro" x="3.000" y="3.833"/>
    <use href="#afro" x="3.600" y="4.600"/>
    <use href="#afro" x="4.200" y="5.367"/>
    <use href="#afro" x="4.800" y="6.133"/>
    <use href="#afro" x="5.400" y="6.900"/>
    <use href="#afro" x="6.000" y="7.667"/>
    <use href="#afro" x="6.600" y="8.433"/>
    <use href="#afro" x="7.200" y="9.200"/>
    <use href="#afro" x="7.800" y="9.967"/>
    <use href="#afro" x="8.400" y="10.733"/>
    <use href="#afro" x="9.000" y="11.500"/>
    <use href="#afro" x="9.600" y="12.267"/>
    <use href="#afro" x="10.200" y="13.033"/>
    <use href="#afro" x="10.800" y="13.800"/>
    <use href="#afro" x="11.400" y="14.567"/>
    <use href="#afro" x="12.000" y="15.333"/>
    <use href="#afro" x="12.600" y="16.100"/>
    <use href="#afro" x="13.200" y="16.867"/>
    <use href="#afro" x="13.800" y="17.633"/>
    <use href="#afro" x="14.400" y="18.400"/>
    <use href="#afro" x="15.000" y="19.167"/>
    <use href="#afro" x="15.600" y="19.933"/>
    <use href="#afro" x="16.200" y="20.700"/>
    <use href="#afro" x="16.800" y="21.467"/>
    <use href="#afro" x="17.400" y="22.233"/>
    <use href="#afro" x="18.000" y="23.000"/>
  </g>
  <g fill="#FF8000">
    <use href="#afro"/>
  </g>
</svg>